<svg width="20" height="20" viewBox="0 0 20 20" fill="none" xmlns="http://www.w3.org/2000/svg">
<mask id="mask0_1_617" style="mask-type:luminance" maskUnits="userSpaceOnUse" x="0" y="0" width="20" height="20">
<path d="M19.9231 0.713699H0.622681V19.2863H19.9231V0.713699Z" fill="white"/>
</mask>
<g mask="url(#mask0_1_617)">
<path d="M16.5831 2.1898H15.781V0.713699H14.531V2.1898H5.7809V0.713699H4.53094V2.1898H3.9627C2.11804 2.1898 0.622681 3.6851 0.622681 5.5298V15.9463C0.622681 17.7909 2.11804 19.2863 3.96271 19.2863H16.5831C18.4277 19.2863 19.9231 17.7909 19.9231 15.9463V5.5298C19.9231 3.6851 18.4277 2.1898 16.5831 2.1898ZM18.6731 15.9463C18.6731 17.0987 17.7355 18.0363 16.5831 18.0363H3.96271C2.81024 18.0363 1.87268 17.0987 1.87268 15.9463V5.5298C1.87268 4.3773 2.81024 3.4398 3.96271 3.4398H4.53095V4.2958H5.781V3.4398H14.531V4.2958H15.781V3.4398H16.5831C17.7355 3.4398 18.6731 4.3773 18.6731 5.5298V15.9463ZM5.043 6.8784H16.043V7.8784H5.043V6.8784ZM5.043 9.8784H11.4597V10.8784H5.043V9.8784ZM5.043 12.8784H8.7097V13.8784H5.043V12.8784Z" fill="#14091D"/>
<path d="M16.5831 2.1898H15.781V0.713699H14.531V2.1898H5.7809V0.713699H4.53094V2.1898H3.9627C2.11804 2.1898 0.622681 3.6851 0.622681 5.5298V15.9463C0.622681 17.7909 2.11804 19.2863 3.96271 19.2863H16.5831C18.4277 19.2863 19.9231 17.7909 19.9231 15.9463V5.5298C19.9231 3.6851 18.4277 2.1898 16.5831 2.1898ZM18.6731 15.9463C18.6731 17.0987 17.7355 18.0363 16.5831 18.0363H3.96271C2.81024 18.0363 1.87268 17.0987 1.87268 15.9463V5.5298C1.87268 4.3773 2.81024 3.4398 3.96271 3.4398H4.53095V4.2958H5.781V3.4398H14.531V4.2958H15.781V3.4398H16.5831C17.7355 3.4398 18.6731 4.3773 18.6731 5.5298V15.9463ZM5.043 6.8784H16.043V7.8784H5.043V6.8784ZM5.043 9.8784H11.4597V10.8784H5.043V9.8784ZM5.043 12.8784H8.7097V13.8784H5.043V12.8784Z" fill="#14091D" fill-opacity="0.5"/>
</g>
</svg>
